<svg width="256" height="256" viewBox="0 0 256 256" fill="none" xmlns="http://www.w3.org/2000/svg">
<rect width="256" height="256" fill="#F5F5F5"/>
<mask id="path-1-outside-1_0_1" maskUnits="userSpaceOnUse" x="27" y="51" width="193" height="149" fill="black">
<rect fill="white" x="27" y="51" width="193" height="149"/>
<path d="M84.12 179.47L82.44 199H32.25V71.53H29.1L31.2 52H52.2V179.47H84.12ZM92.5184 179.47H112.048V199H92.5184V179.47ZM154.009 179.47V199H120.829V179.47H127.969V92.53H120.409L124.609 73H147.919V179.47H154.009ZM218.73 125.08V144.61H206.97L197.1 199H177.99L187.44 144.61H171.06V125.08H190.8L196.47 92.53H164.55V73H197.31C204.17 73 209.21 75.45 212.43 80.35C215.65 85.25 216.49 91.83 214.95 100.09L210.54 125.08H218.73Z"/>
</mask>
<path d="M84.12 179.47L82.44 199H32.25V71.53H29.1L31.2 52H52.2V179.47H84.12ZM92.5184 179.47H112.048V199H92.5184V179.47ZM154.009 179.47V199H120.829V179.47H127.969V92.53H120.409L124.609 73H147.919V179.47H154.009ZM218.73 125.08V144.61H206.97L197.1 199H177.99L187.44 144.61H171.06V125.08H190.8L196.47 92.53H164.55V73H197.31C204.17 73 209.21 75.45 212.43 80.35C215.65 85.25 216.49 91.83 214.95 100.09L210.54 125.08H218.73Z" fill="#0F8F98" fill-opacity="0.87" style="mix-blend-mode:multiply"/>
<path d="M84.12 179.47L85.1163 179.556L85.2097 178.47H84.12V179.47ZM82.44 199V200H83.3577L83.4363 199.086L82.44 199ZM32.25 199H31.25V200H32.25V199ZM32.25 71.53H33.25V70.53H32.25V71.53ZM29.1 71.53L28.1057 71.4231L27.9867 72.53H29.1V71.53ZM31.2 52V51H30.3018L30.2057 51.8931L31.2 52ZM52.2 52H53.2V51H52.2V52ZM52.2 179.47H51.2V180.47H52.2V179.47ZM84.12 179.47L83.1237 179.384L81.4437 198.914L82.44 199L83.4363 199.086L85.1163 179.556L84.12 179.47ZM82.44 199V198H32.25V199V200H82.44V199ZM32.25 199H33.25V71.53H32.25H31.25V199H32.25ZM32.25 71.53V70.53H29.1V71.53V72.53H32.25V71.53ZM29.1 71.53L30.0943 71.6369L32.1943 52.1069L31.2 52L30.2057 51.8931L28.1057 71.4231L29.1 71.53ZM31.2 52V53H52.2V52V51H31.2V52ZM52.2 52H51.2V179.47H52.2H53.2V52H52.2ZM52.2 179.47V180.47H84.12V179.47V178.47H52.2V179.47ZM92.5184 179.47V178.47H91.5184V179.47H92.5184ZM112.048 179.47H113.048V178.47H112.048V179.47ZM112.048 199V200H113.048V199H112.048ZM92.5184 199H91.5184V200H92.5184V199ZM92.5184 179.47V180.47H112.048V179.47V178.47H92.5184V179.47ZM112.048 179.47H111.048V199H112.048H113.048V179.47H112.048ZM112.048 199V198H92.5184V199V200H112.048V199ZM92.5184 199H93.5184V179.47H92.5184H91.5184V199H92.5184ZM154.009 179.47H155.009V178.47H154.009V179.47ZM154.009 199V200H155.009V199H154.009ZM120.829 199H119.829V200H120.829V199ZM120.829 179.47V178.47H119.829V179.47H120.829ZM127.969 179.47V180.47H128.969V179.47H127.969ZM127.969 92.53H128.969V91.53H127.969V92.53ZM120.409 92.53L119.431 92.3197L119.171 93.53H120.409V92.53ZM124.609 73V72H123.801L123.631 72.7897L124.609 73ZM147.919 73H148.919V72H147.919V73ZM147.919 179.47H146.919V180.47H147.919V179.47ZM154.009 179.47H153.009V199H154.009H155.009V179.47H154.009ZM154.009 199V198H120.829V199V200H154.009V199ZM120.829 199H121.829V179.47H120.829H119.829V199H120.829ZM120.829 179.47V180.47H127.969V179.47V178.47H120.829V179.47ZM127.969 179.47H128.969V92.53H127.969H126.969V179.47H127.969ZM127.969 92.53V91.53H120.409V92.53V93.53H127.969V92.53ZM120.409 92.53L121.387 92.7402L125.587 73.2102L124.609 73L123.631 72.7897L119.431 92.3197L120.409 92.53ZM124.609 73V74H147.919V73V72H124.609V73ZM147.919 73H146.919V179.47H147.919H148.919V73H147.919ZM147.919 179.47V180.47H154.009V179.47V178.47H147.919V179.47ZM218.73 125.08H219.73V124.08H218.73V125.08ZM218.73 144.61V145.61H219.73V144.61H218.73ZM206.97 144.61V143.61H206.135L205.986 144.431L206.97 144.61ZM197.1 199V200H197.935L198.084 199.179L197.1 199ZM177.99 199L177.005 198.829L176.801 200H177.99V199ZM187.44 144.61L188.425 144.781L188.629 143.61H187.44V144.61ZM171.06 144.61H170.06V145.61H171.06V144.61ZM171.06 125.08V124.08H170.06V125.08H171.06ZM190.8 125.08V126.08H191.641L191.785 125.252L190.8 125.08ZM196.47 92.53L197.455 92.7016L197.659 91.53H196.47V92.53ZM164.55 92.53H163.55V93.53H164.55V92.53ZM164.55 73V72H163.55V73H164.55ZM212.43 80.35L211.594 80.8992L211.594 80.8992L212.43 80.35ZM214.95 100.09L213.967 99.9067L213.965 99.9162L214.95 100.09ZM210.54 125.08L209.555 124.906L209.348 126.08H210.54V125.08ZM218.73 125.08H217.73V144.61H218.73H219.73V125.08H218.73ZM218.73 144.61V143.61H206.97V144.61V145.61H218.73V144.61ZM206.97 144.61L205.986 144.431L196.116 198.821L197.1 199L198.084 199.179L207.954 144.789L206.97 144.61ZM197.1 199V198H177.99V199V200H197.1V199ZM177.99 199L178.975 199.171L188.425 144.781L187.44 144.61L186.455 144.439L177.005 198.829L177.99 199ZM187.44 144.61V143.61H171.06V144.61V145.61H187.44V144.61ZM171.06 144.61H172.06V125.08H171.06H170.06V144.61H171.06ZM171.06 125.08V126.08H190.8V125.08V124.08H171.06V125.08ZM190.8 125.08L191.785 125.252L197.455 92.7016L196.47 92.53L195.485 92.3584L189.815 124.908L190.8 125.08ZM196.47 92.53V91.53H164.55V92.53V93.53H196.47V92.53ZM164.55 92.53H165.55V73H164.55H163.55V92.53H164.55ZM164.55 73V74H197.31V73V72H164.55V73ZM197.31 73V74C203.9 74 208.593 76.3319 211.594 80.8992L212.43 80.35L213.266 79.8008C209.827 74.5681 204.44 72 197.31 72V73ZM212.43 80.35L211.594 80.8992C214.621 85.505 215.48 91.7907 213.967 99.9067L214.95 100.09L215.933 100.273C217.5 91.8693 216.679 84.995 213.266 79.8008L212.43 80.35ZM214.95 100.09L213.965 99.9162L209.555 124.906L210.54 125.08L211.525 125.254L215.935 100.264L214.95 100.09ZM210.54 125.08V126.08H218.73V125.08V124.08H210.54V125.08Z" fill="black" fill-opacity="0.46" mask="url(#path-1-outside-1_0_1)"/>
<g filter="url(#filter0_d_0_1)">
<rect x="5" y="5" width="238" height="238" rx="32" fill="url(#paint0_linear_0_1)" fill-opacity="0.81" shape-rendering="crispEdges"/>
<rect x="5.5" y="5.5" width="237" height="237" rx="31.5" stroke="url(#paint1_linear_0_1)" stroke-opacity="0.63" shape-rendering="crispEdges"/>
</g>
<defs>
<filter id="filter0_d_0_1" x="0" y="0" width="256" height="256" filterUnits="userSpaceOnUse" color-interpolation-filters="sRGB">
<feFlood flood-opacity="0" result="BackgroundImageFix"/>
<feColorMatrix in="SourceAlpha" type="matrix" values="0 0 0 0 0 0 0 0 0 0 0 0 0 0 0 0 0 0 127 0" result="hardAlpha"/>
<feMorphology radius="2" operator="dilate" in="SourceAlpha" result="effect1_dropShadow_0_1"/>
<feOffset dx="4" dy="4"/>
<feGaussianBlur stdDeviation="3.5"/>
<feComposite in2="hardAlpha" operator="out"/>
<feColorMatrix type="matrix" values="0 0 0 0 0.4 0 0 0 0 0.4 0 0 0 0 0.4 0 0 0 0.79 0"/>
<feBlend mode="normal" in2="BackgroundImageFix" result="effect1_dropShadow_0_1"/>
<feBlend mode="normal" in="SourceGraphic" in2="effect1_dropShadow_0_1" result="shape"/>
</filter>
<linearGradient id="paint0_linear_0_1" x1="124" y1="243" x2="124" y2="5" gradientUnits="userSpaceOnUse">
<stop offset="0.26" stop-color="#0B3037" stop-opacity="0.9"/>
<stop offset="0.73" stop-color="#134E5E" stop-opacity="0.89"/>
</linearGradient>
<linearGradient id="paint1_linear_0_1" x1="124" y1="5" x2="124" y2="243" gradientUnits="userSpaceOnUse">
<stop/>
<stop offset="1" stop-color="#666666"/>
</linearGradient>
</defs>
</svg>
