<svg width="1505" height="208" viewBox="0 0 1505 208" fill="none" xmlns="http://www.w3.org/2000/svg">
<path d="M230.667 1.6C230.267 2.53333 230.133 48.2667 230.267 103.333L230.667 203.333H254.667H278.667L279.067 101.6L279.333 -4.32134e-07H255.333C237.333 -4.32134e-07 231.067 0.4 230.667 1.6Z" fill="black"/>
<path d="M720.933 101.6L721.333 203.333L742.933 203.733L764.4 204L780.267 185.867C788.933 175.867 798.933 164.133 802.533 159.867C806 155.467 809.6 152 810.533 152C811.333 152 815.6 158.267 819.867 165.733C836 193.333 841.2 202 842.667 202.933C844.533 204.267 896.4 204.267 897.2 202.933C897.6 202.4 896.133 199.2 894.133 195.867C892 192.667 886.8 184.267 882.4 177.333C855.467 134.933 843.2 114.267 843.733 112.933C844.133 112 855.2 98.8 868.533 83.3333C881.867 68 892.667 54.9333 892.667 54.4C892.667 53.7333 881.067 53.3333 866.8 53.3333H840.933L806.4 96C787.467 119.333 771.6 138.533 771.067 138.667C770.533 138.667 769.867 107.6 769.733 69.6L769.333 0.666656L744.933 0.266656L720.667 -1.06394e-05L720.933 101.6Z" fill="black"/>
<path d="M978 2.26667C942.8 7.86667 920.4 20.6667 910.533 40.6667C906.933 48.1333 906.667 49.7333 906.667 64.6667C906.667 80 906.8 80.9333 910.667 87.8667C923.067 110.267 942.4 118.4 996.667 124C1028.67 127.333 1037.07 128.8 1043.6 132.133C1054.27 137.6 1055.33 149.333 1046 157.867C1039.33 163.867 1030 166.667 1013.2 167.6C984 169.2 962.267 160.533 955.733 144.533C954.267 140.933 952.267 138.267 950.667 137.867C949.2 137.6 938.133 137.467 926 137.6L904 138L904.267 145.867C905.2 171.067 933.333 196 970 204.267C986.267 207.867 1022.67 208.267 1037.33 204.933C1059.07 200 1075.73 191.6 1086.8 179.733C1095.33 170.667 1098.53 165.333 1101.33 155.467C1104 146.267 1103.6 127.467 1100.53 120.667C1090.27 97.3333 1071.87 89.6 1011.33 83.2C979.333 79.8667 972.4 78.5333 965.333 75.0667C951.867 68.2667 954.133 52.8 969.6 45.7333C975.867 42.8 979.6 42.1333 992.8 41.6C1002.53 41.2 1011.73 41.6 1016.93 42.6667C1031.6 45.4667 1042.8 53.0667 1045.6 62L1046.93 66L1072.67 66.4L1098.4 66.6667L1097.6 60.8C1096.27 51.6 1089.6 38.2667 1082.53 30.6667C1064.8 11.7333 1034.4 1.2 998.4 1.46667C989.067 1.6 979.867 2 978 2.26667Z" fill="black"/>
<path d="M0.133305 6.4C-0.666695 7.73333 1.99997 26.1333 9.46664 70.6667C12.5333 88.8 14 101.733 13.6 106C13.3333 109.6 10.2666 130.4 6.9333 152C3.46664 173.6 0.533305 194 0.399971 197.333L-2.85742e-05 203.333H78C164 203.333 163.6 203.333 179.733 194.933C192.667 188.267 199.867 179.733 204.267 165.6C212.933 137.867 202.267 113.733 176.533 102.933L167.067 99.0667L173.867 94.1333C182.667 87.6 188.133 79.8667 191.333 69.4667C199.6 42.6667 187.467 17.7333 162 9.06667C153.6 6.13333 151.6 6.13333 77.0666 5.6C32.5333 5.33333 0.666638 5.73333 0.133305 6.4ZM132.533 44.6667C142.133 50.2667 145.333 59.6 141.333 70.1333C139.733 74.4 137.467 77.2 133.6 79.7333L128.267 83.3333H94.1333H60L56.5333 63.3333C54.5333 52.2667 53.3333 42.8 53.6 42.2667C54 41.6 70.9333 41.3333 91.2 41.6C125.2 42 128.4 42.2667 132.533 44.6667ZM143.467 123.733C152.667 128.533 156 134 155.867 144.133C155.733 153.733 152.4 159.467 144.8 163.6C138.933 166.667 138.4 166.667 95.6 166.667H52.4L53.2 162.267C53.7333 160 55.3333 150.133 56.8 140.667C58.2666 131.067 59.7333 122.533 60 121.6C60.4 120.4 69.3333 120 98.5333 120H136.4L143.467 123.733Z" fill="black"/>
<path d="M366 48.9333C337.2 53.7333 312.933 76.1333 306.4 103.867C303.2 117.2 303.333 141.333 306.533 153.333C313.067 177.6 331.467 197.2 354.533 204.267C367.867 208.4 389.6 208.267 402 204.133C413.733 200.133 426 191.867 434.667 182.267C439.467 177.067 442.133 174.933 442.533 176.133C442.8 177.2 443.733 183.333 444.533 189.733C445.333 196.133 446.267 202 446.667 202.667C447.2 203.467 457.733 204 471.467 204C492 204 495.467 203.733 496.267 201.867C496.667 200.8 495.2 183.733 492.8 164L488.667 128.133L492.667 93.7333C494.933 74.8 496.8 58.1333 497.067 56.6667C497.333 54.1333 496.4 54 471.867 53.6L446.267 53.3333L444.8 63.3333C444 68.9333 443.333 74.8 443.333 76.5333C443.333 78.1333 442.933 79.8667 442.533 80.2667C442.133 80.6667 437.467 76.6667 432.133 71.3333C414.667 53.8667 388.8 45.0667 366 48.9333ZM400 88.1333C416.667 91.2 430.667 101.867 438.933 118L444 128L438.933 137.867C432.667 150 423.867 158.667 411.6 164.4C403.867 168.133 401.333 168.667 392 168.667C382.8 168.533 380.4 168.133 374.133 164.667C360.267 157.067 353.067 142.667 354.267 124.8C355.067 113.333 358.533 105.067 365.467 98.2667C371.867 91.8667 376.533 89.3333 384.533 88C387.867 87.4667 391.067 86.9333 391.467 86.8C391.867 86.8 395.733 87.3333 400 88.1333Z" fill="black"/>
<path d="M590.667 49.2C555.333 54.9333 529.067 74.8 519.733 103.067C514.667 118.933 514.667 137.6 519.733 152.933C524.4 166.267 529.067 173.6 539.733 183.6C564.267 206.533 606.533 214 644.133 202.133C671.2 193.467 694.933 168.933 697.6 146.933L698.4 140L673.867 140.267L649.467 140.667L648.133 145.333C646.133 152.267 633.6 164.4 625.467 167.067C616.933 170 599.2 170 590.933 167.2C582.4 164.267 573.733 156.267 569.867 147.733C565.467 137.733 565.333 118.4 569.733 108.667C576 94.8 587.067 88 604.933 86.9333C625.333 85.7333 642.8 95.0667 647.6 109.6L649.6 115.333L674 115.733L698.4 116L697.6 109.333C696.267 98.2667 689.467 86 678.8 75.3333C662.133 58.8 639.2 49.6 612 48.6667C604 48.4 594.267 48.6667 590.667 49.2Z" fill="black"/>
<path d="M1192.53 49.3333C1151.33 55.8667 1122.53 84.2667 1119.73 121.067C1116.4 166.4 1148.4 201.067 1198.67 206.8C1225.33 209.733 1255.2 204.4 1278.27 192.4L1290 186.4V169.733C1290 160.667 1289.6 153.333 1289.07 153.6C1288.4 153.867 1284 156 1278.93 158.4C1246.93 173.467 1210.27 174.533 1188.4 161.067C1181.87 157.067 1174 148 1174 144.4C1174 142.933 1184.53 142.667 1234.13 142.667H1294.4L1293.6 130.933C1290.67 90.6667 1269.2 62 1234 51.4667C1225.2 48.8 1202.93 47.7333 1192.53 49.3333ZM1224.53 87.3333C1227.6 88.4 1232 90.5333 1234.27 92.1333C1238.53 95.2 1246 105.867 1246 108.933C1246 110.267 1238.4 110.667 1208.67 110.667H1171.2L1173.47 106.267C1178.8 95.8667 1185.73 89.8667 1196.67 86.5333C1202.4 84.8 1218.8 85.2 1224.53 87.3333Z" fill="black"/>
<path d="M1368.67 50C1341.73 56.1333 1320.67 77.2 1313.47 104.8C1310.67 115.6 1310.67 140.667 1313.33 151.333C1322.13 186 1349.73 207.333 1385.33 207.2C1408.27 207.067 1424.27 200.4 1440.13 184.267C1451.2 173.333 1450.4 172.8 1452.13 191.333C1452.53 196.4 1453.6 201.467 1454.27 202.267C1456.27 204.8 1503.2 204.667 1504.13 202.267C1504.53 201.2 1502.93 185.733 1500.67 167.733C1498.53 149.867 1496.67 131.867 1496.67 127.867C1496.67 123.867 1498.53 106.533 1500.67 89.3333C1502.93 72.1333 1504.67 56.9333 1504.67 55.7333C1504.67 53.4666 1502.93 53.3333 1479.07 53.6L1453.33 54L1451.87 67.0666C1450.93 74.2666 1449.87 80.5333 1449.47 80.9333C1448.93 81.4666 1447.6 80.4 1446.4 78.5333C1442.8 73.2 1432.53 64.1333 1424.67 59.3333C1408.67 49.6 1386.67 45.8666 1368.67 50ZM1417.07 90.8C1429.87 95.4666 1443.33 109.067 1449.2 123.333C1451.47 128.533 1451.33 128.667 1447.33 136.933C1441.73 148.4 1431.6 158.4 1420 164.133C1411.73 168.133 1409.6 168.667 1400 168.667C1391.6 168.667 1388 168 1383.07 165.467C1368.93 158.667 1359.33 140.4 1361.2 124.267C1364.67 95.2 1389.33 80.4 1417.07 90.8Z" fill="black"/>
</svg>
